<svg xmlns="http://www.w3.org/2000/svg" width="160" height="160" viewBox="0 0 120 120">
  <defs>
    <radialGradient id="bg" cx="35%" cy="28%" r="70%">
      <stop offset="0" stop-color="#ffffff" stop-opacity="0.98"/>
      <stop offset="0.55" stop-color="#dcebff" stop-opacity="0.95"/>
      <stop offset="1" stop-color="#b9d4ff" stop-opacity="0.92"/>
    </radialGradient>
    <filter id="softShadow" x="-30%" y="-30%" width="160%" height="160%">
      <feDropShadow dx="0" dy="10" stdDeviation="10" flood-color="#0b2a52" flood-opacity="0.16"/>
    </filter>
    <linearGradient id="shield" x1="0" y1="0" x2="1" y2="1">
      <stop offset="0" stop-color="#7ef0c7"/>
      <stop offset="0.55" stop-color="#2fd59a"/>
      <stop offset="1" stop-color="#19a26f"/>
    </linearGradient>
    <linearGradient id="shine" x1="0" y1="0" x2="0" y2="1">
      <stop offset="0" stop-color="#ffffff" stop-opacity="0.55"/>
      <stop offset="1" stop-color="#ffffff" stop-opacity="0"/>
    </linearGradient>
  </defs>

  <circle cx="60" cy="60" r="46" fill="url(#bg)"/>
  <g filter="url(#softShadow)">
    <path d="M60 16 95 31v29c0 25-21 40-35 45-14-5-35-20-35-45V31L60 16z" fill="url(#shield)"/>
    <path d="M60 90C39 76 38 57 49 51c6-3 11 1 11 1s5-4 11-1c11 6 10 25-11 39z" fill="#fff" opacity="0.92"/>
    <path d="M38 26c16-9 30-9 44 0" fill="none" stroke="url(#shine)" stroke-width="10" stroke-linecap="round" opacity="0.75"/>
  </g>
</svg>
